<?xml version="1.0" standalone="no"?>
<!DOCTYPE svg PUBLIC "-//W3C//DTD SVG 20010904//EN"
 "http://www.w3.org/TR/2001/REC-SVG-20010904/DTD/svg10.dtd">
<svg version="1.0" xmlns="http://www.w3.org/2000/svg"
 width="200.000000pt" height="200.000000pt" viewBox="0 0 200.000000 200.000000"
 preserveAspectRatio="xMidYMid meet">

<g transform="translate(0.000000,200.000000) scale(0.100000,-0.100000)"
fill="#000000" stroke="none">
<path d="M193 1648 l-193 -192 0 -558 c0 -638 -10 -578 99 -578 l61 0 0 -70
c0 -58 3 -71 19 -80 27 -14 1195 -14 1222 0 17 10 19 23 19 165 0 146 1 155
21 165 19 10 35 -3 168 -133 123 -120 156 -148 192 -157 114 -31 217 68 194
187 -5 30 -34 65 -154 188 l-147 150 23 65 c20 56 23 80 20 171 -3 98 -6 112
-40 183 -45 95 -133 191 -218 235 l-59 32 0 119 c0 139 -1 140 -99 140 l-61 0
0 70 c0 58 -3 71 -19 80 -13 6 -169 10 -437 10 l-418 0 -193 -192z m987 -46
l0 -157 -52 -13 c-75 -17 -149 -56 -206 -107 l-50 -45 -347 -2 c-319 -3 -349
-4 -359 -21 -8 -12 -8 -22 0 -35 10 -15 39 -17 328 -20 174 -1 316 -4 316 -6
0 -3 -9 -25 -20 -51 -11 -26 -25 -78 -32 -116 l-11 -69 -277 0 c-303 0 -319
-3 -306 -53 l6 -27 291 -2 291 -3 24 -75 c13 -41 37 -95 54 -120 l30 -45 -342
-5 c-310 -5 -342 -7 -352 -22 -8 -13 -8 -23 0 -35 10 -17 44 -18 405 -23 l394
-5 44 -27 c25 -15 73 -35 108 -44 59 -16 63 -19 63 -45 l0 -29 -550 0 -550 0
0 500 0 500 170 0 c157 0 170 1 180 19 6 11 10 89 10 180 l0 161 370 0 370 0
0 -158z m-820 -17 l0 -105 -112 0 -113 0 105 105 c58 58 108 105 112 105 5 0
8 -47 8 -105z m980 -63 l0 -78 -40 4 -40 4 0 74 0 74 40 0 40 0 0 -78z m72
-189 c203 -95 296 -319 218 -524 -108 -284 -479 -358 -686 -137 -209 224 -116
583 176 680 87 29 207 21 292 -19z m504 -956 c14 -45 -30 -97 -82 -97 -10 0
-80 62 -156 137 l-138 137 52 53 53 53 132 -132 c73 -73 136 -141 139 -151z
m-576 -22 l0 -115 -550 0 -550 0 0 40 0 40 491 0 c319 0 497 4 510 10 15 9 19
22 19 70 l0 59 33 4 c17 2 35 5 40 5 4 1 7 -50 7 -113z"/>
<path d="M530 1580 c-8 -15 -6 -24 10 -40 19 -19 32 -20 279 -20 223 0 262 2
275 16 9 8 16 21 16 28 0 33 -22 36 -297 36 -261 0 -273 -1 -283 -20z"/>
<path d="M1139 1266 c-128 -46 -212 -154 -213 -276 -1 -63 0 -65 26 -68 31 -4
43 13 51 75 11 93 99 185 186 198 74 11 86 18 86 50 0 29 -2 30 -50 32 -27 2
-66 -3 -86 -11z"/>
</g>
</svg>
