<svg width="44" height="24" viewBox="0 0 44 24" fill="none" xmlns="http://www.w3.org/2000/svg">
<path d="M20.546 2.17809C20.7247 1.79065 21.2753 1.79065 21.454 2.17809L23.6972 7.04119C23.9157 7.5149 24.3646 7.84107 24.8826 7.90249L30.2009 8.53305C30.6246 8.58329 30.7947 9.10699 30.4815 9.39667L26.5496 13.0328C26.1666 13.387 25.9951 13.9147 26.0968 14.4264L27.1405 19.6792C27.2236 20.0977 26.7782 20.4214 26.4059 20.213L21.7327 17.5971C21.2775 17.3423 20.7225 17.3423 20.2673 17.5971L15.5941 20.213C15.2218 20.4214 14.7764 20.0977 14.8595 19.6792L15.9032 14.4264C16.0049 13.9147 15.8334 13.387 15.4504 13.0328L11.5185 9.39667C11.2053 9.10698 11.3754 8.58329 11.7991 8.53306L17.1174 7.90249C17.6354 7.84107 18.0843 7.5149 18.3028 7.04119L20.546 2.17809Z" stroke="black"/>
<path d="M30.3695 18.979L31.9339 18.2245C32.2274 18.083 32.5713 18.0932 32.8558 18.252L37.6785 20.9442C38.4234 21.36 39.3134 20.7122 39.1467 19.8756L38.0787 14.5154C38.0106 14.1736 38.1253 13.8211 38.3815 13.5848L42.4027 9.87631C43.0306 9.29726 42.6904 8.24841 41.8422 8.14811L36.398 7.5044C36.0529 7.46359 35.7537 7.24653 35.6078 6.93111L33.3067 1.95588C32.9493 1.18334 31.8517 1.18197 31.4925 1.95361L30 5.15934" stroke="black" stroke-linecap="round"/>
<path d="M11.6833 18.2536L10.4318 17.6135C10.1263 17.4572 9.76212 17.4685 9.46691 17.6432L5.69709 19.8752C4.95721 20.3132 4.04608 19.6751 4.20483 18.83L5.07065 14.2212C5.13234 13.8928 5.02595 13.5553 4.78709 13.3217L1.48164 10.0885C0.883214 9.50321 1.22586 8.48559 2.05645 8.38143L6.42733 7.83329C6.77744 7.78939 7.07849 7.56423 7.21953 7.2408L9.0275 3.09501C9.37607 2.29571 10.5093 2.29435 10.8598 3.09281L12 5.69031" stroke="black" stroke-linecap="round"/>
</svg>
